<mxfile host="app.diagrams.net" modified="2021-02-19T08:45:44.569Z" agent="5.0 (Macintosh; Intel Mac OS X 10_15_6) AppleWebKit/605.1.15 (KHTML, like Gecko) Version/14.0.2 Safari/605.1.15" etag="kgd3Z2CggQ35lmN5rsTP" version="14.4.2" type="github">
  <diagram id="USdPcN2D7O0Sq6OQYNiE" name="Page-1">
    <mxGraphModel dx="2125" dy="813" grid="1" gridSize="10" guides="1" tooltips="1" connect="1" arrows="1" fold="1" page="1" pageScale="1" pageWidth="827" pageHeight="1169" math="0" shadow="0">
      <root>
        <mxCell id="0" />
        <mxCell id="1" parent="0" />
        <mxCell id="2MBEesZgG_2p4eRT9xar-2" value="&lt;p style=&quot;margin: 0px ; font-stretch: normal ; font-size: 13px ; line-height: normal ; font-family: &amp;#34;menlo&amp;#34; ; color: rgb(208 , 168 , 255) ; background-color: rgb(31 , 31 , 36)&quot;&gt;MTLDevice&lt;/p&gt;" style="whiteSpace=wrap;html=1;" vertex="1" parent="1">
          <mxGeometry x="-700" y="60" width="90" height="20" as="geometry" />
        </mxCell>
        <mxCell id="2MBEesZgG_2p4eRT9xar-3" value="&lt;p style=&quot;margin: 0px ; font-stretch: normal ; font-size: 13px ; line-height: normal ; font-family: &amp;#34;menlo&amp;#34; ; color: rgb(208 , 168 , 255) ; background-color: rgb(31 , 31 , 36)&quot;&gt;MTLCommandQueue&lt;/p&gt;" style="whiteSpace=wrap;html=1;" vertex="1" parent="1">
          <mxGeometry x="-560" y="10" width="150" height="20" as="geometry" />
        </mxCell>
        <mxCell id="2MBEesZgG_2p4eRT9xar-4" value="&lt;p style=&quot;margin: 0px ; font-stretch: normal ; font-size: 13px ; line-height: normal ; font-family: &amp;#34;menlo&amp;#34; ; color: rgb(208 , 168 , 255) ; background-color: rgb(31 , 31 , 36)&quot;&gt;MTLLibrary&lt;/p&gt;" style="whiteSpace=wrap;html=1;" vertex="1" parent="1">
          <mxGeometry x="-560" y="50" width="150" height="20" as="geometry" />
        </mxCell>
      </root>
    </mxGraphModel>
  </diagram>
</mxfile>
